<svg class="svg-icon" style="width: 1em; height: 1em;vertical-align: middle;fill: white;overflow: hidden;" viewBox="0 0 1024 1024" version="1.1" xmlns="http://www.w3.org/2000/svg"><path d="M710.3 519.1c45.3 0 87.7 12.7 123.8 34.8V210.3c2.1-29.6-19.7-59.2-53.2-59.2h-15.8c-15.8 0-27.7 9.8-27.7 25.6v116.5c0 15.8-11.8 25.6-25.6 25.6l-426.4 4c-15.8 0-25.6-13.8-25.6-25.6V180.7c0-15.8-11.8-25.6-25.6-25.6h-15.9c-41.4-4-59.2 23.7-59.2 59.2v643.6c0 29.6 27.6 69.1 65.1 69.1h320.1c-44.2-43.2-71.7-103.5-71.7-170-0.1-131.2 106.6-237.9 237.7-237.9z m-422.8-71.5c0-9.5 7.7-17.3 17.3-17.3h383.8c9.5 0 17.3 7.7 17.3 17.3v0.9c0 9.5-7.7 17.3-17.3 17.3H304.8c-9.5 0-17.3-7.7-17.3-17.3v-0.9z m0 122.8c0-9.8 7.9-17.7 17.7-17.7h207.2c9.8 0 17.7 7.9 17.7 17.7 0 9.8-7.9 17.7-17.7 17.7H305.2c-9.8 0.1-17.7-7.9-17.7-17.7z"  /><path d="M710.3 554.1c-111.7 0-202.8 90.6-202.8 202.8 0 111.7 90.6 202.8 202.8 202.8 111.7 0 202.8-90.6 202.8-202.8S822 554.1 710.3 554.1z m139.9 140.6L696.6 846.5c-0.9 0-0.9 0.9-1.8 1.8-3.7 4.6-9.1 6.4-14.6 6.4s-11-2.7-14.6-6.4l-95.1-90.5c-8.2-9.1-8.2-21.9 0-30.2 7.3-8.2 21-8.2 29.3 0l80.5 75.9 140.8-138.1c3.7-4.6 9.1-6.4 14.6-6.4s11 2.7 14.6 6.4c8.1 8.3 8.1 21.1-0.1 29.3zM332.9 269.5h331.6c15.8 0 25.6-13.8 25.6-25.6v-79c0-15.8-11.8-25.6-25.6-25.6h-15.8c-15.8 0-25.6-13.8-25.6-25.6 0-27.6-21.7-49.3-49.3-49.3H427.6c-27.6 0-49.3 21.7-49.3 49.3 0 15.8-11.8 25.6-25.6 25.6H335c-15.8 0-25.6 13.8-25.6 25.6v79c-2.2 15.7 9.6 25.6 23.5 25.6z m167.7-158c31.6 0 53.3 25.6 53.3 55.3 0 35.5-25.6 55.3-53.3 55.3s-53.3-25.6-53.3-55.3 25.7-55.3 53.3-55.3z"  /></svg>