<svg class="svg-icon" style="width: 1em; height: 1em;vertical-align: middle;fill: white;overflow: hidden;" viewBox="0 0 1024 1024" version="1.1" xmlns="http://www.w3.org/2000/svg"><path d="M348.16 204.8c0-11.264 9.216-20.48 20.48-20.48h276.48c11.264 0 20.48 9.216 20.48 20.48s-9.216 20.48-20.48 20.48H368.64c-11.264 0-20.48-9.216-20.48-20.48z m389.12 61.44c11.264 0 20.48-9.216 20.48-20.48v-81.92c0-11.264-9.216-20.48-20.48-20.48s-20.48 9.216-20.48 20.48v81.92c0 11.264 9.216 20.48 20.48 20.48z m-450.56 0c11.264 0 20.48-9.216 20.48-20.48v-81.92c0-11.264-9.216-20.48-20.48-20.48s-20.48 9.216-20.48 20.48v81.92c0 11.264 9.216 20.48 20.48 20.48z m296.96 358.4c0 11.264-9.216 20.48-20.48 20.48H378.88c1.024 87.04 7.168 175.104 9.216 203.776 39.936 1.024 81.92 1.024 123.904 1.024 11.264 0 20.48 9.216 20.48 20.48s-9.216 20.48-20.48 20.48c-202.752 0-408.576-10.24-410.624-10.24-10.24-1.024-18.432-9.216-19.456-19.456C81.92 860.16 71.68 695.296 71.68 532.48s10.24-327.68 10.24-328.704c1.024-11.264 9.216-19.456 20.48-19.456h112.64c11.264 0 20.48 9.216 20.48 20.48s-9.216 20.48-20.48 20.48h-93.184c-1.024 25.6-4.096 73.728-6.144 132.096 49.152-2.048 212.992-9.216 396.288-9.216s347.136 7.168 396.288 9.216c-2.048-58.368-4.096-107.52-6.144-132.096H819.2c-11.264 0-20.48-9.216-20.48-20.48s9.216-20.48 20.48-20.48h102.4c11.264 0 19.456 8.192 20.48 19.456 0 2.048 10.24 165.888 10.24 328.704 0 11.264-9.216 20.48-20.48 20.48s-20.48-9.216-20.48-20.48c0-46.08-1.024-91.136-2.048-134.144-29.696-1.024-118.784-5.12-232.448-8.192 1.024 19.456 4.096 56.32 6.144 100.352 0 9.216 1.024 17.408 1.024 26.624 0 8.192 0 17.408 1.024 26.624 1.024 11.264-8.192 20.48-19.456 21.504h-1.024c-11.264 0-19.456-8.192-20.48-19.456-1.024-9.216-1.024-18.432-1.024-27.648s0-17.408-1.024-25.6c-2.048-47.104-5.12-86.016-6.144-103.424H512c-43.008 0-83.968 0-123.904 1.024-2.048 29.696-8.192 122.88-9.216 214.016h184.32c11.264 0 20.48 9.216 20.48 20.48zM114.688 398.336c-1.024 43.008-2.048 88.064-2.048 134.144 0 23.552 0 48.128 1.024 71.68H337.92c1.024-88.064 7.168-179.2 9.216-212.992-113.664 2.048-202.752 6.144-232.448 7.168zM337.92 645.12H113.664c2.048 87.04 6.144 161.792 8.192 195.584 35.84 2.048 122.88 5.12 225.28 7.168-2.048-32.768-8.192-117.76-9.216-202.752z m634.88 153.6c0 96.256-77.824 174.08-174.08 174.08s-174.08-77.824-174.08-174.08 77.824-174.08 174.08-174.08 174.08 77.824 174.08 174.08z m-40.96 0c0-73.728-59.392-133.12-133.12-133.12s-133.12 59.392-133.12 133.12 59.392 133.12 133.12 133.12 133.12-59.392 133.12-133.12z m-75.776 44.032L819.2 816.128V737.28c0-11.264-9.216-20.48-20.48-20.48s-20.48 9.216-20.48 20.48v89.088c0 6.144 3.072 12.288 8.192 16.384l45.056 32.768c4.096 3.072 8.192 4.096 12.288 4.096 6.144 0 12.288-3.072 16.384-8.192 7.168-9.216 5.12-22.528-4.096-28.672z"  /></svg>